<?xml version="1.0" encoding="UTF-8"?>
<svg width="720" height="200" viewBox="0 0 720 200" xmlns="http://www.w3.org/2000/svg" role="img" aria-label="Smart Waste Management">
  <defs>
    <linearGradient id="g" x1="0" y1="0" x2="1" y2="1">
      <stop offset="0%" stop-color="#16a34a"/>
      <stop offset="55%" stop-color="#22c55e"/>
      <stop offset="100%" stop-color="#10b981"/>
    </linearGradient>
  </defs>
  <g transform="translate(24 24)">
    <rect x="0" y="0" width="152" height="152" rx="44" fill="url(#g)"/>
    <g transform="translate(76 70)" fill="none" stroke="rgba(255,255,255,0.95)" stroke-width="12" stroke-linecap="round" stroke-linejoin="round">
      <path d="M 0 -48 A 48 48 0 0 1 41 -24"/>
      <path d="M 41 -24 L 29 -28" />
      <path d="M 41 -24 L 35 -36" />
      <g transform="rotate(120)">
        <path d="M 0 -48 A 48 48 0 0 1 41 -24"/>
        <path d="M 41 -24 L 29 -28" />
        <path d="M 41 -24 L 35 -36" />
      </g>
      <g transform="rotate(240)">
        <path d="M 0 -48 A 48 48 0 0 1 41 -24"/>
        <path d="M 41 -24 L 29 -28" />
        <path d="M 41 -24 L 35 -36" />
      </g>
    </g>
    <g transform="translate(76 112)">
      <path d="M 0 32
               C -32 24 -46 -4 -22 -28
               C 6 -52 56 -34 46 4
               C 38 32 14 46 0 32 Z"
            fill="rgba(255,255,255,0.96)"/>
      <path d="M -4 34 C -6 14 4 -6 24 -22"
            fill="none" stroke="rgba(22,163,74,0.55)" stroke-width="6" stroke-linecap="round"/>
    </g>
  </g>
  <g font-family="Inter, system-ui, -apple-system, Segoe UI, Roboto, Arial, sans-serif" transform="translate(208 74)">
    <text x="0" y="0" font-size="44" font-weight="800" fill="#0f172a">Smart Waste</text>
    <text x="0" y="44" font-size="26" font-weight="600" fill="#16a34a">Management System</text>
    <text x="0" y="78" font-size="16" font-weight="500" fill="#64748b">Cleaner city • Greener future</text>
  </g>
</svg>
